<svg xmlns="http://www.w3.org/2000/svg" width="10" height="10" viewBox="0 0 10 10"><g fill="none" fill-rule="evenodd"><rect width="10" height="10"/><path fill="#FFF" d="M7.85231648,1.19691136 C8.11486496,0.934362879 8.54054016,0.934362879 8.80308864,1.19691136 C9.06563712,1.45945984 9.06563712,1.88513504 8.80308864,2.14768352 L8.80308864,2.14768352 L5.951,5 L8.80308864,7.85231648 C9.06563712,8.11486496 9.06563712,8.54054016 8.80308864,8.80308864 C8.54054016,9.06563712 8.11486496,9.06563712 7.85231648,8.80308864 L5,5.951 L2.14768352,8.80308864 C1.91138989,9.03938227 1.54296362,9.06301164 1.28024345,8.87397673 L1.19691136,8.80308864 C0.934362879,8.54054016 0.934362879,8.11486496 1.19691136,7.85231648 L1.19691136,7.85231648 L4.049,5 L1.19691136,2.14768352 C0.934362879,1.88513504 0.934362879,1.45945984 1.19691136,1.19691136 C1.45945984,0.934362879 1.88513504,0.934362879 2.14768352,1.19691136 L5,4.049 Z"/></g></svg>